<?xml version="1.0" encoding="UTF-8"?>
<svg width="132px" height="45px" viewBox="0 0 132 45" version="1.1" xmlns="http://www.w3.org/2000/svg" xmlns:xlink="http://www.w3.org/1999/xlink">
    <!-- Generator: sketchtool 58 (101010) - https://sketch.com -->
    <title>F8473F79-538A-4A65-8676-E9D406F2FA55@1.00x</title>
    <desc>Created with sketchtool.</desc>
    <g id="Landing-and-404" stroke="none" stroke-width="1" fill="none" fill-rule="evenodd">
        <g id="Desktop-Copy-10" transform="translate(-507.000000, -5641.000000)">
            <g id="Group-20-Copy-2" transform="translate(507.000000, 5641.000000)">
                <g id="Download_on_the_App_Store_Badge_US-UK_RGB_blk_092917">
                    <rect id="Rectangle" stroke="#727272" fill="#000000" x="0.5" y="0.5" width="131" height="44" rx="7"></rect>
                    <g id="_Group_" transform="translate(10.022244, 8.800000)" fill="#FFFFFF" fill-rule="nonzero">
                        <g id="Group-2">
                            <g id="_Group_2">
                                <g id="_Group_3">
                                    <path d="M16.4299312,13.530748 C16.4541561,11.66463 17.4398921,9.94090472 19.0417852,8.963482 C18.0266324,7.52456405 16.3872738,6.64496619 14.6182496,6.590034 C12.7570919,6.396148 10.9527807,7.695347 10.0043687,7.695347 C9.03760282,7.695347 7.57737366,6.609284 6.00494791,6.641393 C3.93604564,6.70773226 2.05402461,7.84687803 1.04746157,9.64205 C-1.09605509,13.325312 0.502815489,18.738467 2.55612491,21.715738 C3.58343907,23.173623 4.78407441,24.802118 6.35508149,24.744368 C7.89240632,24.681085 8.46656732,23.77144 10.3222498,23.77144 C12.1607088,23.77144 12.6993921,24.744368 14.3022748,24.70765 C15.951896,24.681074 16.9912356,23.243286 17.9825067,21.771596 C18.7206303,20.7327997 19.2886151,19.5847035 19.6654222,18.369835 C17.7061733,17.5473994 16.432218,15.6420378 16.4299312,13.530748 L16.4299312,13.530748 Z" id="_Path_"></path>
                                    <path d="M13.4023747,4.631979 C14.3018166,3.5603501 14.7449376,2.1829527 14.6376343,0.792297 C13.263487,0.935539536 11.9941598,1.58735464 11.0825665,2.617868 C10.18241,3.63460793 9.72639279,4.96477595 9.81495457,6.315397 C11.2075276,6.32962744 12.5297462,5.70916854 13.4023747,4.631979 L13.4023747,4.631979 Z" id="_Path_2"></path>
                                </g>
                            </g>
                            <g id="Group" transform="translate(26.661089, 9.900000)">
                                <path d="M9.20168258,11.153615 L3.95549758,11.153615 L2.69563292,14.84571 L0.473557583,14.84571 L5.44265925,1.18591 L7.75131758,1.18591 L12.7204192,14.84571 L10.46045,14.84571 L9.20168258,11.153615 Z M4.49883583,9.449902 L8.6573025,9.449902 L6.60731808,3.457905 L6.54995075,3.457905 L4.49883583,9.449902 Z" id="Shape"></path>
                                <path d="M23.4519897,9.866703 C23.4519897,12.961531 21.7829949,14.949902 19.2643517,14.949902 C17.9624871,15.0174911 16.7362017,14.3407338 16.1071202,13.207502 L16.0594618,13.207502 L16.0594618,18.14032 L13.9997352,18.14032 L13.9997352,4.886618 L15.9934717,4.886618 L15.9934717,6.543064 L16.0313545,6.543064 C16.6883837,5.41693671 17.9159914,4.74047072 19.2264689,4.782415 C21.7732083,4.782426 23.4519897,6.780466 23.4519897,9.866703 Z M21.3348957,9.866703 C21.3348957,7.850403 20.2850048,6.524804 18.6831196,6.524804 C17.1093749,6.524804 16.0508279,7.878321 16.0508279,9.866703 C16.0508279,11.873345 17.1093749,13.217193 18.6831196,13.217193 C20.2850159,13.217193 21.3348957,11.901274 21.3348957,9.866703 Z" id="Shape"></path>
                                <path d="M34.4963541,9.866703 C34.4963541,12.961531 32.8273592,14.949902 30.3087161,14.949902 C29.0068514,15.0174911 27.7805661,14.3407338 27.1514845,13.207502 L27.1038262,13.207502 L27.1038262,18.14032 L25.0440995,18.14032 L25.0440995,4.886618 L27.0377917,4.886618 L27.0377917,6.543064 L27.0756745,6.543064 C27.7327085,5.41693739 28.9603209,4.74047538 30.2708,4.782426 C32.817617,4.782426 34.4963541,6.780466 34.4963541,9.866703 Z M32.3792712,9.866703 C32.3792712,7.850403 31.3293692,6.524804 29.7274839,6.524804 C28.1537392,6.524804 27.0951922,7.878321 27.0951922,9.866703 C27.0951922,11.873345 28.1537392,13.217193 29.7274839,13.217193 C31.3293802,13.217193 32.3792712,11.901274 32.3792712,9.866703 L32.3792712,9.866703 Z" id="Shape"></path>
                                <path d="M41.7957709,11.039743 C41.9483884,12.394338 43.2742876,13.283743 45.0861355,13.283743 C46.8222399,13.283743 48.0712762,12.394294 48.0712762,11.172898 C48.0712762,10.112641 47.3179531,9.477798 45.5342347,9.042726 L43.7505162,8.616256 C41.223217,8.010398 40.0499353,6.837347 40.0499353,4.93383 C40.0499353,2.576992 42.1194042,0.958144 45.0579949,0.958144 C47.9662616,0.958144 49.959987,2.576992 50.0270966,4.93383 L47.9478632,4.93383 C47.8233974,3.570644 46.6879986,2.7478 45.028746,2.7478 C43.3694934,2.7478 42.2341057,3.580324 42.2341057,4.79204 C42.2341057,5.757763 42.9592882,6.326023 44.7332643,6.76104 L46.2496417,7.130574 C49.0735087,7.793368 50.2467904,8.919174 50.2467904,10.917192 C50.2467904,13.472756 48.1957198,15.073344 44.9334958,15.073344 C41.8812456,15.073344 39.8204438,13.510354 39.6873108,11.039644 L41.7957709,11.039743 Z" id="Path"></path>
                                <path d="M54.6920494,2.52978 L54.6920494,4.886618 L56.6002447,4.886618 L56.6002447,6.505466 L54.6920494,6.505466 L54.6920494,11.995797 C54.6920494,12.848726 55.0741252,13.246189 55.9129451,13.246189 C56.1394789,13.2422685 56.3656462,13.2264799 56.5905025,13.198889 L56.5905025,14.808068 C56.2133681,14.8780055 55.8300427,14.9096799 55.4464476,14.902602 C53.4148726,14.902602 52.6225805,14.145274 52.6225805,12.213828 L52.6225805,6.505466 L51.1635705,6.505466 L51.1635705,4.886618 L52.6225583,4.886618 L52.6225583,2.52978 L54.6920494,2.52978 Z" id="Path"></path>
                                <path d="M57.705375,9.866703 C57.705375,6.73321 59.5648591,4.764166 62.4645029,4.764166 C65.3738779,4.764166 67.2247059,6.733166 67.2247059,9.866703 C67.2247059,13.008798 65.3836202,14.96924 62.4645029,14.96924 C59.5464164,14.96924 57.705375,13.008787 57.705375,9.866703 Z M65.1260102,9.866703 C65.1260102,7.717193 64.1334867,6.448541 62.4644918,6.448541 C60.795497,6.448541 59.8040596,7.726862 59.8040596,9.866703 C59.8040596,12.024804 60.795497,13.283798 62.4644918,13.283798 C64.1334867,13.283798 65.1260102,12.024804 65.1260102,9.866703 L65.1260102,9.866703 Z" id="Shape"></path>
                                <path d="M68.9228721,4.886618 L70.8873597,4.886618 L70.8873597,6.581718 L70.935018,6.581718 C71.2089715,5.49050525 72.2163982,4.73949471 73.3486687,4.782404 C73.5860339,4.78158145 73.8227441,4.80716582 74.0543667,4.858678 L74.0543667,6.770786 C73.7547077,6.67990765 73.4421119,6.63818242 73.1289084,6.647256 C72.5233685,6.62287498 71.9373402,6.8623882 71.5246973,7.30290657 C71.1120543,7.74342494 70.9140224,8.34093782 70.9825987,8.938556 L70.9825987,14.845688 L68.9228721,14.845688 L68.9228721,4.886618 Z" id="Path"></path>
                                <path d="M83.5509325,11.920601 C83.2738492,13.728506 81.4998619,14.969229 79.2301615,14.969229 C76.3110442,14.969229 74.4991852,13.028114 74.4991852,9.913959 C74.4991852,6.790135 76.3207865,4.764155 79.1435785,4.764155 C81.9198205,4.764155 83.6656672,6.656925 83.6656672,9.676557 L83.6656672,10.376949 L76.5783964,10.376949 L76.5783964,10.500479 C76.5122261,11.2419138 76.7701842,11.9758314 77.2866546,12.5155469 C77.803125,13.0552625 78.5283288,13.3487566 79.2777977,13.321374 C80.2773395,13.4143236 81.2197119,12.8446754 81.5951232,11.92059 L83.5509325,11.920601 Z M76.5881192,8.948247 L81.6048543,8.948247 C81.6422334,8.28200724 81.3978803,7.63050539 80.9306663,7.1506947 C80.4634523,6.67088401 79.8157392,6.40626845 79.1435785,6.420601 C78.4661006,6.41658845 77.8150756,6.68132809 77.3352058,7.15597657 C76.855336,7.63062505 76.5863834,8.27585321 76.5881192,8.948247 L76.5881192,8.948247 Z" id="Shape"></path>
                            </g>
                            <g id="Group" transform="translate(27.769423, 0.000000)">
                                <path d="M3.13236058,0.8041 C4.00677635,0.741822599 4.86324726,1.07200217 5.46603543,1.703759 C6.0688236,2.33551583 6.35439184,3.20225927 6.24413942,4.065424 C6.24413942,6.162299 5.10225683,7.367624 3.13236058,7.367624 L0.743603,7.367624 L0.743603,0.8041 L3.13236058,0.8041 Z M1.77075092,6.4394 L3.01762592,6.4394 C3.64252857,6.47647221 4.25099756,6.23211491 4.67408385,5.77417697 C5.09717014,5.31623903 5.28983073,4.69347386 5.198571,4.0788 C5.28319116,3.46667699 5.08775605,2.84905084 4.66571878,2.39484738 C4.2436815,1.94064392 3.6392077,1.69739493 3.01762592,1.731631 L1.77075092,1.731631 L1.77075092,6.4394 Z" id="Shape"></path>
                                <path d="M7.40442033,4.888774 C7.31884273,4.00094756 7.74778606,3.14172313 8.51135265,2.6714571 C9.27491925,2.20119108 10.2410907,2.20119108 11.0046573,2.6714571 C11.7682239,3.14172313 12.1971672,4.00094756 12.1115896,4.888774 C12.1987954,5.77755449 11.7702436,6.63844542 11.006,7.10972383 C10.2417564,7.58100224 9.27425356,7.58100224 8.51000994,7.10972383 C7.74576632,6.63844542 7.31721452,5.77755449 7.40442033,4.888774 Z M11.0985064,4.888774 C11.0985064,3.815097 10.6125133,3.187217 9.75962867,3.187217 C8.9034855,3.187217 8.42187033,3.815097 8.42187033,4.888785 C8.42187033,5.971064 8.90351875,6.594104 9.75962867,6.594104 C10.6125355,6.594104 11.0985064,5.966752 11.0985064,4.888774 L11.0985064,4.888774 Z" id="Shape"></path>
                                <polygon id="Path" points="18.3686965 7.367525 17.3469572 7.367525 16.3154757 3.719474 16.2375488 3.719474 15.2103898 7.367525 14.1983817 7.367525 12.8227073 2.414302 13.8217257 2.414302 14.7157517 6.193902 14.7893562 6.193902 15.815429 2.414302 16.7603275 2.414302 17.7864003 6.193902 17.8643272 6.193902 18.7540197 2.414302 19.7389622 2.414302"></polygon>
                                <path d="M20.8959957,2.414302 L21.8441417,2.414302 L21.8441417,3.201165 L21.9177461,3.201165 C22.1736989,2.62182573 22.7717866,2.26743822 23.407069,2.31869 C23.8989659,2.28198495 24.3809902,2.46926889 24.7170423,2.82766228 C25.0530944,3.18605566 25.2067065,3.67666614 25.1345062,4.16097 L25.1345062,7.36747 L24.1495637,7.36747 L24.1495637,4.406446 C24.1495637,3.610453 23.8010482,3.214596 23.0726183,3.214596 C22.7389721,3.19917303 22.4151774,3.32913083 22.186123,3.57039846 C21.9570687,3.8116661 21.8455992,4.14018111 21.8809383,4.469817 L21.8809383,7.367525 L20.8959957,7.367525 L20.8959957,2.414302 Z" id="Path"></path>
                                <polygon id="Path" points="26.7039284 0.4807 27.688871 0.4807 27.688871 7.367514 26.7039284 7.367514"></polygon>
                                <path d="M29.0580506,4.888774 C28.9725387,4.00088947 29.4015497,3.1416433 30.1651729,2.67137002 C30.9287962,2.20109675 31.8950173,2.20109675 32.6586406,2.67137002 C33.4222638,3.1416433 33.8512748,4.00088947 33.7657629,4.888774 C33.852858,5.77758631 33.4242276,6.63845291 32.6599461,7.10971056 C31.8956646,7.58096822 30.9281489,7.58096822 30.1638674,7.10971056 C29.3995859,6.63845291 28.9709555,5.77758631 29.0580506,4.888774 L29.0580506,4.888774 Z M32.7521367,4.888774 C32.7521367,3.815097 32.2661436,3.187217 31.4132589,3.187217 C30.5571157,3.187217 30.0755006,3.815097 30.0755006,4.888785 C30.0755006,5.971064 30.557149,6.594104 31.4132589,6.594104 C32.2661547,6.594104 32.7521367,5.966752 32.7521367,4.888774 L32.7521367,4.888774 Z" id="Shape"></path>
                                <path d="M34.8026642,5.966752 C34.8026642,5.075147 35.4715655,4.561139 36.6589008,4.488088 L38.0107682,4.410747 L38.0107682,3.98321 C38.0107682,3.460061 37.6622528,3.164656 36.989029,3.164656 C36.4391959,3.164656 36.0582063,3.364999 35.9488803,3.715195 L34.9953257,3.715195 C35.0959846,2.864411 35.9023414,2.318712 37.0344817,2.318712 C38.2856903,2.318712 38.9913883,2.936912 38.9913883,3.98321 L38.9913883,7.367536 L38.0432424,7.367536 L38.0432424,6.671445 L37.9653155,6.671445 C37.6432877,7.17978397 37.0706175,7.47687956 36.4662503,7.449145 C36.0425745,7.492883 35.620028,7.35670173 35.303072,7.07426769 C34.986116,6.79183365 34.8043334,6.38950764 34.8026642,5.966752 L34.8026642,5.966752 Z M38.0107682,5.543505 L38.0107682,5.129399 L36.7920338,5.20674 C36.1047342,5.25239 35.7930154,5.484424 35.7930154,5.921091 C35.7930154,6.366888 36.1826611,6.626312 36.7184737,6.626312 C37.0356633,6.65817885 37.3523034,6.56092256 37.5959084,6.35680715 C37.8395134,6.15269174 37.989224,5.85919516 38.0107682,5.543505 Z" id="Shape"></path>
                                <path d="M40.2858773,4.888774 C40.2858773,3.323639 41.0965677,2.332132 42.3575075,2.332132 C42.9942193,2.30301515 43.5905589,2.64162015 43.8879607,3.201132 L43.9615651,3.201132 L43.9615651,0.4807 L44.9465077,0.4807 L44.9465077,7.367514 L44.0026953,7.367514 L44.0026953,6.584941 L43.9247684,6.584941 C43.6048859,7.13981068 43.0011993,7.47269212 42.3575186,7.449145 C41.0879117,7.4492 40.2858773,6.457671 40.2858773,4.888774 Z M41.3033273,4.888774 C41.3033273,5.939362 41.802299,6.571543 42.6367964,6.571543 C43.4669381,6.571543 43.9799967,5.930243 43.9799967,4.893075 C43.9799967,3.860747 43.4615516,3.210306 42.6367964,3.210306 C41.8076744,3.210306 41.3032941,3.846777 41.3032941,4.888774 L41.3033273,4.888774 Z" id="Shape"></path>
                                <path d="M49.0215833,4.888774 C48.9360057,4.00094756 49.3649491,3.14172313 50.1285157,2.6714571 C50.8920822,2.20119108 51.8582537,2.20119108 52.6218203,2.6714571 C53.3853869,3.14172313 53.8143302,4.00094756 53.7287526,4.888774 C53.8159584,5.77755449 53.3874066,6.63844542 52.623163,7.10972383 C51.8589194,7.58100224 50.8914166,7.58100224 50.1271729,7.10972383 C49.3629293,6.63844542 48.9343775,5.77755449 49.0215833,4.888774 L49.0215833,4.888774 Z M52.7156583,4.888774 C52.7156583,3.815097 52.2296763,3.187217 51.3767917,3.187217 C50.5206485,3.187217 50.0390333,3.815097 50.0390333,4.888785 C50.0390333,5.971064 50.5206817,6.594104 51.3767917,6.594104 C52.2296874,6.594104 52.7156583,5.966752 52.7156583,4.888774 Z" id="Shape"></path>
                                <path d="M55.0503071,2.414302 L55.998453,2.414302 L55.998453,3.201165 L56.0720574,3.201165 C56.3280102,2.62182573 56.9260979,2.26743822 57.5613803,2.31869 C58.0532773,2.28198495 58.5353015,2.46926889 58.8713536,2.82766228 C59.2074057,3.18605566 59.3610178,3.67666614 59.2888176,4.16097 L59.2888176,7.36747 L58.303875,7.36747 L58.303875,4.406446 C58.303875,3.610453 57.9553596,3.214596 57.2269297,3.214596 C56.8932835,3.19917303 56.5694887,3.32913083 56.3404344,3.57039846 C56.11138,3.8116661 55.9999105,4.14018111 56.0352497,4.469817 L56.0352497,7.367525 L55.0503071,7.367525 L55.0503071,2.414302 Z" id="Path"></path>
                                <path d="M64.8543023,1.181103 L64.8543023,2.436863 L65.9355812,2.436863 L65.9355812,3.260257 L64.8543023,3.260257 L64.8543023,5.80723 C64.8543023,6.326078 65.0696958,6.553272 65.5600003,6.553272 C65.6855253,6.55287329 65.8109242,6.54534063 65.9355812,6.530711 L65.9355812,7.344964 C65.7587018,7.37636979 65.5794911,7.39307805 65.3998129,7.394915 C64.3044692,7.394915 63.8682736,7.012489 63.8682736,6.057513 L63.8682736,3.260213 L63.0759926,3.260213 L63.0759926,2.436819 L63.8682736,2.436819 L63.8682736,1.181103 L64.8543023,1.181103 Z" id="Path"></path>
                                <path d="M67.2809427,0.4807 L68.2572292,0.4807 L68.2572292,3.210295 L68.3351562,3.210295 C68.6034036,2.62588542 69.2119588,2.2710463 69.8568978,2.322991 C70.3460016,2.29657701 70.8215006,2.48798408 71.1538798,2.84507724 C71.4862589,3.20217039 71.6408988,3.6877562 71.575679,4.169572 L71.575679,7.367525 L70.58975,7.367525 L70.58975,4.410725 C70.58975,3.619561 70.2184583,3.218875 69.5225469,3.218875 C69.1798824,3.19098303 68.8422842,3.31462006 68.6000061,3.55673285 C68.357728,3.79884565 68.2354748,4.13474634 68.2659297,4.474635 L68.2659297,7.367525 L67.2809871,7.367525 L67.2809427,0.4807 Z" id="Path"></path>
                                <path d="M77.3187187,6.030123 C77.0425299,6.96444043 76.1315263,7.56811334 75.156172,7.463126 C74.4906887,7.48056122 73.8511221,7.20679377 73.4071646,6.71446068 C72.9632071,6.22212759 72.7597408,5.56100153 72.85075,4.906495 C72.762158,4.25016952 72.964862,3.58798411 73.4063473,3.09149165 C73.8478327,2.5949992 74.4846572,2.31305443 75.1518384,2.318701 C76.5405025,2.318701 77.3782473,3.260301 77.3782473,4.815701 L77.3782473,5.1568 L73.8540909,5.1568 L73.8540909,5.21158 C73.8229047,5.57913416 73.9493862,5.94269253 74.2024299,6.21284477 C74.4554735,6.48299701 74.8115999,6.63467631 75.1832264,6.63058 C75.6650986,6.68799415 76.1341681,6.45076635 76.3705728,6.03009 L77.3187187,6.030123 Z M73.8540687,4.433836 L76.3748732,4.433836 C76.3999801,4.09767648 76.2808848,3.76662558 76.0469361,3.522265 C75.8129874,3.27790443 75.4859427,3.14295985 75.1463965,3.150686 C74.8022501,3.1463948 74.4709427,3.28022336 74.2276284,3.52181377 C73.9843142,3.76340418 73.8496167,4.09227911 73.8540909,4.433836 L73.8540687,4.433836 Z" id="Shape"></path>
                            </g>
                        </g>
                    </g>
                </g>
            </g>
        </g>
    </g>
</svg>