<?xml version="1.0" encoding="UTF-8"?>
<svg width="130px" height="45px" viewBox="0 0 130 45" version="1.1" xmlns="http://www.w3.org/2000/svg" xmlns:xlink="http://www.w3.org/1999/xlink">
    <!-- Generator: sketchtool 58 (101010) - https://sketch.com -->
    <title>49CA0195-BDD5-44A3-A483-0E70680FF0D9@1.00x</title>
    <desc>Created with sketchtool.</desc>
    <defs>
        <linearGradient x1="61.0773393%" y1="4.65780731%" x2="26.4630093%" y2="71.7906977%" id="linearGradient-1">
            <stop stop-color="#00A0FF" offset="0%"></stop>
            <stop stop-color="#00A1FF" offset="0.7%"></stop>
            <stop stop-color="#00BEFF" offset="26%"></stop>
            <stop stop-color="#00D2FF" offset="51.2%"></stop>
            <stop stop-color="#00DFFF" offset="76%"></stop>
            <stop stop-color="#00E3FF" offset="100%"></stop>
        </linearGradient>
        <linearGradient x1="107.185336%" y1="50.4660194%" x2="-130.167006%" y2="50.4660194%" id="linearGradient-2">
            <stop stop-color="#FFE000" offset="0%"></stop>
            <stop stop-color="#FFBD00" offset="40.9%"></stop>
            <stop stop-color="#FFA500" offset="77.5%"></stop>
            <stop stop-color="#FF9C00" offset="100%"></stop>
        </linearGradient>
        <linearGradient x1="86.1293532%" y1="30.7498278%" x2="-50.2039801%" y2="136.448128%" id="linearGradient-3">
            <stop stop-color="#FF3A44" offset="0%"></stop>
            <stop stop-color="#C31162" offset="100%"></stop>
        </linearGradient>
        <linearGradient x1="-18.880597%" y1="-12.1855815%" x2="41.9950249%" y2="35.0125941%" id="linearGradient-4">
            <stop stop-color="#32A071" offset="0%"></stop>
            <stop stop-color="#2DA771" offset="6.9%"></stop>
            <stop stop-color="#15CF74" offset="47.6%"></stop>
            <stop stop-color="#06E775" offset="80.1%"></stop>
            <stop stop-color="#00F076" offset="100%"></stop>
        </linearGradient>
    </defs>
    <g id="Landing-and-404" stroke="none" stroke-width="1" fill="none" fill-rule="evenodd">
        <g id="Desktop-Copy-10" transform="translate(-657.000000, -5641.000000)">
            <g id="Group-20-Copy-2" transform="translate(507.000000, 5641.000000)">
                <g id="Google" transform="translate(150.000000, 0.000000)">
                    <rect id="Rectangle-Copy-3" stroke="#727272" fill="#000000" x="0.5" y="0.5" width="129" height="44" rx="7"></rect>
                    <g id="XMLID_2_" transform="translate(10.057143, 7.333333)" fill-rule="nonzero">
                        <g id="XMLID_13_" transform="translate(32.914286, 1.833333)" fill="#FFFFFF">
                            <g id="XMLID_73_" stroke="#FFFFFF" stroke-width="0.2">
                                <path d="M5.94285714,3.75833333 C5.94285714,4.49166667 5.76,5.13333333 5.30285714,5.5 C4.84571429,6.05 4.11428571,6.325 3.38285714,6.325 C2.65142857,6.325 1.92,6.05 1.46285714,5.5 C0.914285714,4.95 0.64,4.30833333 0.64,3.48333333 C0.64,2.65833333 0.914285714,2.01666667 1.46285714,1.46666667 C2.01142857,0.916666667 2.65142857,0.641666667 3.38285714,0.641666667 C3.74857143,0.641666667 4.11428571,0.733333333 4.48,0.825 C4.84571429,1.00833333 5.12,1.19166667 5.30285714,1.375 L4.84571429,1.83333333 C4.48,1.375 4.02285714,1.19166667 3.38285714,1.19166667 C2.83428571,1.19166667 2.37714286,1.375 1.92,1.74166667 C1.55428571,2.10833333 1.28,2.65833333 1.28,3.3 C1.28,3.94166667 1.46285714,4.4 1.92,4.85833333 C2.28571429,5.225 2.83428571,5.40833333 3.38285714,5.40833333 C3.93142857,5.40833333 4.48,5.225 4.84571429,4.85833333 C5.12,4.58333333 5.21142857,4.21666667 5.30285714,3.75833333 L3.38285714,3.75833333 L3.38285714,3.11666667 L5.94285714,3.11666667 L5.94285714,3.75833333 L5.94285714,3.75833333 Z" id="XMLID_87_"></path>
                                <polygon id="XMLID_85_" points="10.0571429 1.55833333 7.68 1.55833333 7.68 3.20833333 9.87428571 3.20833333 9.87428571 3.85 7.68 3.85 7.68 5.5 10.0571429 5.5 10.0571429 6.14166667 6.94857143 6.14166667 6.94857143 0.916666667 10.0571429 0.916666667"></polygon>
                                <polygon id="XMLID_83_" points="12.8914286 6.23333333 12.2514286 6.23333333 12.2514286 1.55833333 10.7885714 1.55833333 10.7885714 0.916666667 14.4457143 0.916666667 14.4457143 1.55833333 12.9828571 1.55833333 12.9828571 6.23333333"></polygon>
                                <polygon id="XMLID_81_" points="17.0057143 6.23333333 17.0057143 0.916666667 17.6457143 0.916666667 17.6457143 6.23333333"></polygon>
                                <polygon id="XMLID_79_" points="20.7542857 6.23333333 20.1142857 6.23333333 20.1142857 1.55833333 18.6514286 1.55833333 18.6514286 0.916666667 22.3085714 0.916666667 22.3085714 1.55833333 20.8457143 1.55833333 20.8457143 6.23333333"></polygon>
                                <path d="M29.1657143,5.5 C28.6171429,6.05 27.9771429,6.325 27.2457143,6.325 C26.5142857,6.325 25.7828571,6.05 25.3257143,5.5 C24.7771429,4.95 24.5028571,4.30833333 24.5028571,3.48333333 C24.5028571,2.75 24.7771429,2.01666667 25.3257143,1.46666667 C25.8742857,0.916666667 26.5142857,0.641666667 27.2457143,0.641666667 C27.9771429,0.641666667 28.7085714,0.916666667 29.1657143,1.46666667 C29.7142857,2.01666667 29.9885714,2.65833333 29.9885714,3.39166667 C29.8971429,4.30833333 29.6228571,4.95 29.1657143,5.5 L29.1657143,5.5 Z M25.7828571,5.04166667 C26.1485714,5.40833333 26.6971429,5.68333333 27.2457143,5.68333333 C27.7942857,5.68333333 28.2514286,5.5 28.7085714,5.04166667 C29.0742857,4.675 29.2571429,4.125 29.2571429,3.48333333 C29.2571429,2.84166667 29.0742857,2.38333333 28.7085714,1.925 C28.3428571,1.55833333 27.7942857,1.28333333 27.2457143,1.28333333 C26.6971429,1.28333333 26.24,1.46666667 25.7828571,1.925 C25.4171429,2.29166667 25.2342857,2.84166667 25.2342857,3.48333333 C25.2342857,4.125 25.3257143,4.675 25.7828571,5.04166667 Z" id="XMLID_76_"></path>
                                <polygon id="XMLID_74_" points="30.9028571 6.23333333 30.9028571 0.916666667 31.7257143 0.916666667 34.2857143 5.04166667 34.2857143 0.916666667 34.9257143 0.916666667 34.9257143 6.23333333 34.1942857 6.23333333 31.4514286 1.925 31.4514286 6.23333333 30.9028571 6.23333333"></polygon>
                            </g>
                            <path d="M24.32,13.9333333 C22.2171429,13.9333333 20.5714286,15.4916667 20.5714286,17.6916667 C20.5714286,19.8916667 22.3085714,21.45 24.32,21.45 C26.4228571,21.45 28.0685714,19.8916667 28.0685714,17.6916667 C28.0685714,15.5833333 26.4228571,13.9333333 24.32,13.9333333 L24.32,13.9333333 Z M24.32,19.9833333 C23.2228571,19.9833333 22.2171429,19.0666667 22.2171429,17.6916667 C22.2171429,16.3166667 23.2228571,15.4 24.32,15.4 C25.4171429,15.4 26.4228571,16.3166667 26.4228571,17.6916667 C26.4228571,19.0666667 25.4171429,19.9833333 24.32,19.9833333 Z M16.0914286,13.9333333 C13.9885714,13.9333333 12.3428571,15.4916667 12.3428571,17.6916667 C12.3428571,19.8916667 14.08,21.45 16.0914286,21.45 C18.1942857,21.45 19.84,19.8916667 19.84,17.6916667 C19.84,15.5833333 18.1028571,13.9333333 16.0914286,13.9333333 Z M16.0914286,19.9833333 C14.9942857,19.9833333 13.9885714,19.0666667 13.9885714,17.6916667 C13.9885714,16.3166667 14.9942857,15.4 16.0914286,15.4 C17.1885714,15.4 18.1942857,16.3166667 18.1942857,17.6916667 C18.1942857,19.0666667 17.1885714,19.9833333 16.0914286,19.9833333 Z M6.30857143,15.125 L6.30857143,16.6833333 L10.0571429,16.6833333 C9.96571429,17.6 9.6,18.2416667 9.14285714,18.7 C8.59428571,19.25 7.68,19.8916667 6.21714286,19.8916667 C3.84,19.8916667 2.01142857,17.9666667 2.01142857,15.675 C2.01142857,13.3833333 3.84,11.4583333 6.21714286,11.4583333 C7.49714286,11.4583333 8.41142857,11.9166667 9.05142857,12.5583333 L10.1485714,11.4583333 C9.23428571,10.5416667 7.95428571,9.80833333 6.12571429,9.80833333 C2.92571429,9.80833333 0.182857143,12.4666667 0.182857143,15.675 C0.182857143,18.8833333 2.92571429,21.5416667 6.12571429,21.5416667 C7.86285714,21.5416667 9.14285714,20.9916667 10.24,19.8916667 C11.3371429,18.7916667 11.6114286,17.325 11.6114286,16.1333333 C11.6114286,15.7666667 11.6114286,15.4 11.52,15.125 L6.30857143,15.125 L6.30857143,15.125 Z M46.3542857,16.4083333 C46.08,15.5833333 45.0742857,14.025 43.1542857,14.025 C41.2342857,14.025 39.5885714,15.5833333 39.5885714,17.7833333 C39.5885714,19.8916667 41.1428571,21.5416667 43.3371429,21.5416667 C45.0742857,21.5416667 46.08,20.4416667 46.4457143,19.8916667 L45.1657143,19.0666667 C44.7085714,19.7083333 44.16,20.075 43.3371429,20.075 C42.5142857,20.075 41.8742857,19.7083333 41.5085714,18.975 L46.5371429,16.8666667 L46.3542857,16.4083333 L46.3542857,16.4083333 Z M41.2342857,17.6 C41.2342857,16.1333333 42.3314286,15.4 43.2457143,15.4 C43.8857143,15.4 44.4342857,15.7666667 44.6171429,16.225 L41.2342857,17.6 Z M37.12,21.2666667 L38.7657143,21.2666667 L38.7657143,10.175 L37.12,10.175 L37.12,21.2666667 Z M34.3771429,14.85 C33.92,14.3916667 33.28,14.025 32.3657143,14.025 C30.4457143,14.025 28.8,15.675 28.8,17.7833333 C28.8,19.8916667 30.5371429,21.5416667 32.3657143,21.5416667 C33.28,21.5416667 34.0114286,21.175 34.3771429,20.7166667 L34.4685714,20.7166667 L34.4685714,21.2666667 C34.4685714,22.7333333 33.7371429,23.4666667 32.4571429,23.4666667 C31.4514286,23.4666667 30.8114286,22.7333333 30.5371429,22.0916667 L29.0742857,22.7333333 C29.5314286,23.7416667 30.6285714,24.9333333 32.3657143,24.9333333 C34.2857143,24.9333333 35.9314286,23.8333333 35.9314286,20.9916667 L35.9314286,14.2083333 L34.3771429,14.2083333 L34.3771429,14.85 L34.3771429,14.85 Z M32.5485714,19.9833333 C31.4514286,19.9833333 30.4457143,19.0666667 30.4457143,17.6916667 C30.4457143,16.4083333 31.36,15.4 32.5485714,15.4 C33.6457143,15.4 34.56,16.4083333 34.56,17.6916667 C34.56,19.0666667 33.6457143,19.9833333 32.5485714,19.9833333 Z M54.1257143,10.175 L50.1942857,10.175 L50.1942857,21.2666667 L51.84,21.2666667 L51.84,17.05 L54.1257143,17.05 C55.9542857,17.05 57.7828571,15.7666667 57.7828571,13.5666667 C57.7828571,11.3666667 55.9542857,10.175 54.1257143,10.175 L54.1257143,10.175 Z M54.1257143,15.5833333 L51.7485714,15.5833333 L51.7485714,11.825 L54.1257143,11.825 C55.3142857,11.825 56.0457143,12.8333333 56.0457143,13.75 C56.0457143,14.4833333 55.3142857,15.5833333 54.1257143,15.5833333 Z M64.3657143,13.9333333 C63.1771429,13.9333333 61.8971429,14.4833333 61.44,15.675 L62.9028571,16.3166667 C63.1771429,15.675 63.8171429,15.4916667 64.3657143,15.4916667 C65.1885714,15.4916667 66.1028571,16.0416667 66.1028571,16.9583333 L66.1028571,17.05 C65.8285714,16.8666667 65.1885714,16.5916667 64.3657143,16.5916667 C62.8114286,16.5916667 61.1657143,17.4166667 61.1657143,19.0666667 C61.1657143,20.5333333 62.4457143,21.5416667 63.9085714,21.5416667 C65.0057143,21.5416667 65.6457143,21.0833333 66.0114286,20.4416667 L66.1028571,20.4416667 L66.1028571,21.2666667 L67.6571429,21.2666667 L67.6571429,17.05 C67.6571429,15.0333333 66.1942857,13.9333333 64.3657143,13.9333333 L64.3657143,13.9333333 Z M64.0914286,19.9833333 C63.5428571,19.9833333 62.8114286,19.7083333 62.8114286,19.0666667 C62.8114286,18.2416667 63.7257143,17.875 64.5485714,17.875 C65.28,17.875 65.6457143,18.0583333 66.0114286,18.2416667 C65.92,19.25 65.0971429,19.9833333 64.0914286,19.9833333 L64.0914286,19.9833333 Z M73.5085714,14.2083333 L71.5885714,18.975 L71.4971429,18.975 L69.5771429,14.2083333 L67.84,14.2083333 L70.7657143,20.9 L69.12,24.6583333 L70.8571429,24.6583333 L75.4285714,14.2083333 L73.5085714,14.2083333 L73.5085714,14.2083333 Z M58.6057143,21.2666667 L60.2514286,21.2666667 L60.2514286,10.175 L58.6057143,10.175 L58.6057143,21.2666667 Z" id="XMLID_14_"></path>
                        </g>
                        <g id="XMLID_3_">
                            <path d="M1.00571429,0.916666667 C0.64,1.28333333 0.457142857,1.74166667 0.457142857,2.475 L0.457142857,26.8583333 C0.457142857,27.5 0.64,28.05 1.00571429,28.4166667 L1.09714286,28.5083333 L14.72,14.85 L14.72,14.4833333 L1.00571429,0.916666667 Z" id="XMLID_12_" fill="url(#linearGradient-1)"></path>
                            <path d="M19.2914286,19.3416667 L14.72,14.7583333 L14.72,14.4833333 L19.2914286,9.9 L19.3828571,9.99166667 L24.7771429,13.0166667 C26.3314286,13.9333333 26.3314286,15.3083333 24.7771429,16.225 L19.3828571,19.25 L19.2914286,19.3416667 L19.2914286,19.3416667 Z" id="XMLID_11_" fill="url(#linearGradient-2)"></path>
                            <path d="M19.3828571,19.3416667 L14.72,14.6666667 L1.00571429,28.4166667 C1.55428571,28.9666667 2.37714286,29.0583333 3.29142857,28.5083333 L19.3828571,19.3416667" id="XMLID_10_" fill="url(#linearGradient-3)"></path>
                            <path d="M19.3828571,9.99166667 L3.29142857,0.825 C2.37714286,0.275 1.55428571,0.366666667 1.00571429,0.916666667 L14.72,14.6666667 L19.3828571,9.99166667 Z" id="XMLID_9_" fill="url(#linearGradient-4)"></path>
                            <g id="XMLID_6_" transform="translate(0.000000, 19.250000)" fill="#000000">
                                <path d="M19.2914286,0 L3.29142857,9.075 C2.37714286,9.625 1.55428571,9.53333333 1.09714286,9.075 L1.00571429,9.16666667 L1.09714286,9.25833333 C1.64571429,9.71666667 2.37714286,9.71666667 3.29142857,9.25833333 L19.3828571,0.0916666667 L19.2914286,0 Z" id="XMLID_8_" opacity="0.2"></path>
                                <path d="M1.00571429,8.98333333 C0.64,8.61666667 0.457142857,8.15833333 0.457142857,7.425 L0.457142857,7.60833333 C0.457142857,8.25 0.64,8.8 1.00571429,9.16666667 L1.00571429,8.98333333 Z" id="XMLID_7_" opacity="0.12"></path>
                            </g>
                            <path d="M24.7771429,16.1333333 L19.2914286,19.25 L19.3828571,19.3416667 L24.7771429,16.3166667 C25.5085714,15.8583333 25.9657143,15.3083333 25.9657143,14.7583333 C25.8742857,15.2166667 25.4171429,15.675 24.7771429,16.1333333 Z" id="XMLID_5_" fill="#000000" opacity="0.12"></path>
                            <path d="M3.29142857,1.00833333 L24.7771429,13.2 C25.5085714,13.5666667 25.8742857,14.1166667 25.9657143,14.6666667 C25.9657143,14.1166667 25.6,13.475 24.7771429,13.1083333 L3.29142857,0.825 C1.73714286,-0.0916666667 0.457142857,0.641666667 0.457142857,2.475 L0.457142857,2.65833333 C0.457142857,0.825 1.73714286,0.0916666667 3.29142857,1.00833333 Z" id="XMLID_4_" fill="#FFFFFF" opacity="0.25"></path>
                        </g>
                    </g>
                </g>
            </g>
        </g>
    </g>
</svg>